:version 1.10
:name ASF
:units
  mass 1
  length 1
  angle deg
:documentation
  ASF file generated by Kaydara
:root
  axis xyz
  order  tx ty tz rx ry rz
  position 0 0 0
  orientation 0 0 0
:bonedata
  begin
    id 1
    name RightUpLegDummy
    direction -1 2.30186e-007 8.31532e-007
    length 4.04083
    axis 0 0 0 xyz
  end
  begin
    id 2
    name RightUpLeg
    direction -0.000919234 -0.999985 0.00544864
    length 17.4221
    axis -3.80308 -0.00076134 -0.0523649 xyz
    dof rx ry rz
  end
  begin
    id 3
    name RightLeg
    direction -0.000919271 -0.999984 -0.00555045
    length 17.1239
    axis 4.00314 0.0181274 -0.183583 xyz
    dof rx ry rz
  end
  begin
    id 4
    name RightFoot
    direction -2.57843e-005 -4.04509e-007 1
    length 6.72091
    axis 8.18909e-005 -0.122003 -0.403008 xyz
    dof rx ry rz
  end
  begin
    id 5
    name RightToes
    direction 0.00116825 -0.014069 0.9999
    length 3.85082
    axis 0.000514414 0.540638 -0.356797 xyz
    dof rx ry rz
  end
  begin
    id 6
    name SpineDummy
    direction 0.0168869 0.966876 -0.254689
    length 6.99894
    axis 0 0 0 xyz
  end
  begin
    id 7
    name Spine
    direction -0.0132008 0.999903 0.00446247
    length 11.1999
    axis -0.00148109 0.00725429 0.756411 xyz
    dof rx ry rz
  end
  begin
    id 8
    name Spine1
    direction 0 0 0
    length 0
    axis -0.000934958 0.0245693 1.46543 xyz
    dof rx ry rz
  end
  begin
    id 9
    name HEadDummy
    direction -0.0255732 0.999672 0.00128215
    length 3.43865
    axis -0.000934958 0.0245693 1.46543 xyz
  end
  begin
    id 10
    name HEad
    direction -0.0472656 0.980052 0.19304
    length 5.12695
    axis -0.000934954 0.0245693 1.46543 xyz
    dof rx ry rz
  end
  begin
    id 11
    name LeftShoulder1Dummy
    direction 0.953098 0.301717 -0.023914
    length 3.68488
    axis -0.000934958 0.0245693 1.46543 xyz
  end
  begin
    id 12
    name LeftShoulder1
    direction 0.962466 0.271167 0.0112566
    length 3.13809
    axis -0.000934958 0.0245693 1.46543 xyz
    dof rx ry rz
  end
  begin
    id 13
    name LeftArm
    direction 0.999943 0.00455037 -0.00961766
    length 11.3419
    axis -23.1648 0.685459 1.22814 xyz
    dof rx ry rz
  end
  begin
    id 14
    name LeftForeArm
    direction 0.999332 0.0131969 0.0340885
    length 8.70632
    axis -9.90633 0.618216 0.0826942 xyz
    dof rx ry rz
  end
  begin
    id 15
    name LeftHand
    direction 0.994373 -0.0366703 0.0993905
    length 5.32135
    axis 0.00675269 0.680415 0.445699 xyz
    dof rx ry rz
  end
  begin
    id 16
    name RightShoulderDummy
    direction -0.967298 0.252589 -0.0230903
    length 3.68488
    axis -0.000934958 0.0245693 1.46543 xyz
  end
  begin
    id 17
    name RightShoulder
    direction -0.975062 0.221602 0.0120823
    length 3.13809
    axis 0.216257 0.0246515 1.45863 xyz
    dof rx ry rz
  end
  begin
    id 18
    name RightArm
    direction -0.99886 -0.00851186 -0.0469687
    length 10.3947
    axis -23.196 0.23503 -0.532632 xyz
    dof rx ry rz
  end
  begin
    id 19
    name RightForeArm
    direction -0.99909 0.00114866 0.0426317
    length 8.68355
    axis -9.91764 -0.134943 0.610517 xyz
    dof rx ry rz
  end
  begin
    id 20
    name RightHand
    direction -0.992888 -0.0489538 0.10852
    length 5.28593
    axis -0.00275396 -0.197403 0.246414 xyz
    dof rx ry rz
  end
  begin
    id 21
    name LeftUpLegDummy
    direction 1 -2.30186e-007 -8.31532e-007
    length 4.04083
    axis 0 0 0 xyz
  end
  begin
    id 22
    name LeftUpLeg
    direction -0.000920097 -1 2.79241e-006
    length 17.4221
    axis -3.48782 0.00143434 -0.0532288 xyz
    dof rx ry rz
  end
  begin
    id 23
    name LeftLeg
    direction -0.000920097 -1 2.7912e-006
    length 17.1239
    axis 3.68162 -0.00806512 -0.0529896 xyz
    dof rx ry rz
  end
  begin
    id 24
    name LeftFoot
    direction -2.57845e-005 -3.987e-007 1
    length 6.72091
    axis 3.02372e-005 -0.00147829 -0.214229 xyz
    dof rx ry rz
  end
  begin
    id 25
    name LeftToes
    direction 0.00813577 -0.00488255 0.999955
    length 3.85048
    axis 3.89895e-005 -0.0014783 -0.214229 xyz
    dof rx ry rz
  end
:hierarchy
  begin
    root RightUpLegDummy SpineDummy LeftUpLegDummy
    RightUpLegDummy RightUpLeg
    RightUpLeg RightLeg
    RightLeg RightFoot
    RightFoot RightToes
    SpineDummy Spine
    Spine Spine1
    Spine1 HEadDummy LeftShoulder1Dummy RightShoulderDummy
    HEadDummy HEad
    LeftShoulder1Dummy LeftShoulder1
    LeftShoulder1 LeftArm
    LeftArm LeftForeArm
    LeftForeArm LeftHand
    RightShoulderDummy RightShoulder
    RightShoulder RightArm
    RightArm RightForeArm
    RightForeArm RightHand
    LeftUpLegDummy LeftUpLeg
    LeftUpLeg LeftLeg
    LeftLeg LeftFoot
    LeftFoot LeftToes
  end

:SAMPLES-PER-SECOND 30
:FULLY-SPECIFIED
:DEGREES
1
root  -47.9771 34.8082 1.95566 -172.307 76.3098 178.636
RightUpLeg  -10.0967 -21.6505 -1.90008
RightLeg  10.0444 -4.59633 -0.510258
RightFoot  3.89884 0.0269324 -0.181941
RightToes  -27.8317 -0.136832 -0.24468
Spine  -1.44705 0.240776 -0.880099
Spine1  -2.93907 0.409296 -1.17395
HEad  -46.9428 3.35388 -2.47857
LeftShoulder1  -1.94126e-019 -3.10601e-018 -2.51263e-017
LeftArm  -11.9317 20.8839 -79.6321
LeftForeArm  31.5577 -20.0338 -3.11273
LeftHand  -0.451198 -1.594 7.67146
RightShoulder  -4.96962e-017 0 -2.36833e-017
RightArm  -37.2141 -25.1909 75.6979
RightForeArm  62.5632 9.77525 1.5233
RightHand  -0.363011 -1.08336 -9.7156
LeftUpLeg  -14.7587 4.65965 -2.37515
LeftLeg  14.505 18.0854 3.39448
LeftFoot  0.777565 -0.0113313 0.365125
LeftToes  -18.5535 1.49739e-006 1.00523e-007
2
root  -47.8932 34.798 1.8607 -171.958 76.635 178.954
RightUpLeg  -9.91023 -21.6808 -1.99282
RightLeg  9.82518 -4.24574 -0.454921
RightFoot  3.99861 0.0259099 -0.167327
RightToes  -28.1789 -0.136832 -0.24468
Spine  -1.52513 0.252939 -0.920081
Spine1  -3.09511 0.429649 -1.25467
HEad  -47.3985 3.26723 -2.4845
LeftShoulder1  -1.94126e-019 -3.10601e-018 -2.51263e-017
LeftArm  -12.4178 21.2647 -79.9203
LeftForeArm  31.6294 -20.7336 -3.16679
LeftHand  -0.439864 -1.65286 7.42485
RightShoulder  -4.96962e-017 0 -2.36833e-017
RightArm  -37.1859 -25.3465 75.6098
RightForeArm  62.6413 9.86798 1.52667
RightHand  -0.374605 -1.05808 -9.97368
LeftUpLeg  -14.699 4.94184 -2.4294
LeftLeg  14.6934 18.0632 3.4508
LeftFoot  0.606882 -0.00767097 0.308239
LeftToes  -18.2605 1.49739e-006 1.00523e-007
3
root  -47.8156 34.7902 1.7573 -171.676 77.0752 179.287
RightUpLeg  -9.82709 -21.2865 -2.13877
RightLeg  9.95109 -4.20203 -0.459586
RightFoot  3.96658 0.0253991 -0.160027
RightToes  -28.3752 -0.136832 -0.24468
Spine  -1.56651 0.320992 -0.983074
Spine1  -3.1835 0.571911 -1.38316
HEad  -47.9581 3.37551 -2.36188
LeftShoulder1  -1.94126e-019 -3.10601e-018 -2.51263e-017
LeftArm  -12.1316 21.7638 -80.0391
LeftForeArm  31.3008 -21.3464 -3.20897
LeftHand  -0.43495 -1.69297 7.30523
RightShoulder  -4.96962e-017 0 -2.36833e-017
RightArm  -36.9628 -25.3188 75.4924
RightForeArm  62.1016 10.2041 1.53574
RightHand  -0.364233 -1.12478 -9.83896
LeftUpLeg  -14.5068 5.35314 -2.49457
LeftLeg  14.787 18.0533 3.47898
LeftFoot  0.420355 -0.00378395 0.247829
LeftToes  -17.7873 1.49739e-006 1.00523e-007
4
root  -47.7402 34.7818 1.64428 -171.337 77.5276 179.703
RightUpLeg  -9.83317 -20.6309 -2.29923
RightLeg  10.3108 -4.38361 -0.507315
RightFoot  3.86084 0.025381 -0.159769
RightToes  -28.5135 -0.136832 -0.24468
Spine  -1.56777 0.370096 -1.05423
Spine1  -3.19465 0.686604 -1.52824
HEad  -48.4853 3.36866 -2.25989
LeftShoulder1  -1.94126e-019 -3.10601e-018 -2.51263e-017
LeftArm  -12.0187 22.1162 -80.1176
LeftForeArm  31.2957 -21.3637 -3.18571
LeftHand  -0.435189 -1.76777 7.23846
RightShoulder  -4.96962e-017 0 -2.36833e-017
RightArm  -36.6747 -24.9113 75.3724
RightForeArm  61.639 10.4888 1.53762
RightHand  -0.367081 -1.07108 -9.79917
LeftUpLeg  -14.2274 5.77929 -2.56803
LeftLeg  14.7609 18.0177 3.46401
LeftFoot  0.237374 -5.85706e-005 0.189932
LeftToes  -16.9796 1.49739e-006 1.00523e-007
5
root  -47.6903 34.7728 1.50129 -171.856 78.0618 179.325
RightUpLeg  -10.0373 -20.0478 -2.70649
RightLeg  11.1482 -4.41321 -0.576259
RightFoot  3.50702 0.0231354 -0.127675
RightToes  -28.7029 -0.136832 -0.24468
Spine  -1.50901 0.453986 -1.19477
Spine1  -3.08962 0.875263 -1.80703
HEad  -49.151 3.39645 -2.07018
LeftShoulder1  -1.94126e-019 -3.10601e-018 -2.51263e-017
LeftArm  -11.8627 22.2532 -80.1502
LeftForeArm  31.1525 -20.7932 -3.08518
LeftHand  -0.432618 -1.70359 7.22271
RightShoulder  -4.96962e-017 0 -2.36833e-017
RightArm  -35.8638 -24.2932 75.3137
RightForeArm  60.8455 10.9715 1.5298
RightHand  -0.369123 -1.09432 -9.9052
LeftUpLeg  -13.8621 5.8403 -2.85604
LeftLeg  14.6762 18.4618 3.51854
LeftFoot  0.167096 -1.64287e-005 0.172968
LeftToes  -15.8729 1.49739e-006 1.00523e-007
6
root  -47.6461 34.7575 1.35018 -172.665 78.536 178.671
RightUpLeg  -10.4531 -19.5344 -3.18345
RightLeg  12.4632 -4.39018 -0.67618
RightFoot  2.88383 0.0190896 -0.0698579
RightToes  -28.794 -0.136832 -0.24468
Spine  -1.43358 0.511919 -1.36139
Spine1  -2.95072 1.01416 -2.1311
HEad  -49.8198 3.2476 -1.89868
LeftShoulder1  -1.94126e-019 -3.10601e-018 -2.51263e-017
LeftArm  -12.0263 22.2007 -80.1074
LeftForeArm  31.4251 -19.5239 -2.9008
LeftHand  -0.433452 -1.79407 7.18586
RightShoulder  -4.96962e-017 0 -2.36833e-017
RightArm  -34.6946 -23.586 75.3404
RightForeArm  59.6012 11.6991 1.49425
RightHand  -0.362873 -1.07088 -9.68512
LeftUpLeg  -13.483 5.88082 -3.20727
LeftLeg  14.5764 18.8841 3.56263
LeftFoot  -0.00648946 0.000670796 0.120457
LeftToes  -14.7503 1.49739e-006 1.00523e-007
7
root  -47.6219 34.7312 1.17985 -174.748 79.1286 176.668
RightUpLeg  -11.5102 -19.3878 -3.90299
RightLeg  14.7776 -3.91722 -0.766955
RightFoot  2.07129 0.0129387 0.0180406
RightToes  -28.961 -0.136832 -0.24468
Spine  -1.36955 0.593408 -1.62221
Spine1  -2.83256 1.19376 -2.63116
HEad  -50.3909 3.15561 -1.7456
LeftShoulder1  -1.94126e-019 -3.10601e-018 -2.51263e-017
LeftArm  -12.3621 22.0427 -79.921
LeftForeArm  31.9231 -17.8698 -2.67563
LeftHand  -0.435957 -1.74745 7.27002
RightShoulder  -4.96962e-017 0 -2.36833e-017
RightArm  -33.148 -22.8597 75.5536
RightForeArm  58.1139 12.6334 1.41351
RightHand  -0.363189 -1.05595 -9.66181
LeftUpLeg  -13.1181 6.22607 -3.86267
LeftLeg  14.3344 19.1661 3.53175
LeftFoot  -0.200454 0.00114418 0.06064
LeftToes  -13.7815 1.49739e-006 1.00523e-007
8
root  -47.6096 34.6972 1.00617 -177.865 79.8396 173.624
RightUpLeg  -13.1619 -19.9151 -4.76075
RightLeg  18.0772 -2.7284 -0.700821
RightFoot  1.38747 0.00728246 0.0988652
RightToes  -29.5786 -0.14103 -0.249027
Spine  -1.29397 0.686475 -1.93339
Spine1  -2.68851 1.38611 -3.22146
HEad  -50.8899 3.13132 -1.71953
LeftShoulder1  -1.94126e-019 -3.10601e-018 -2.51263e-017
LeftArm  -13.1287 21.7514 -79.6324
LeftForeArm  32.7012 -15.7658 -2.4033
LeftHand  -0.446821 -1.72548 7.46822
RightShoulder  -4.96962e-017 0 -2.36833e-017
RightArm  -31.3712 -22.0831 75.9274
RightForeArm  56.4473 13.7545 1.28594
RightHand  -0.365287 -0.970528 -9.56232
LeftUpLeg  -12.7384 7.07238 -4.67346
LeftLeg  13.9956 19.0485 3.39705
LeftFoot  -0.306291 -0.000342278 0.0334308
LeftToes  -13.1822 1.49739e-006 1.00523e-007
9
root  -47.5959 34.6642 0.839548 179.348 80.6012 171.017
RightUpLeg  -15.1384 -20.7111 -5.51267
RightLeg  22.0339 -1.23625 -0.413219
RightFoot  1.46455 0.0047885 0.134501
RightToes  -31.5829 -0.154972 -0.262816
Spine  -1.15244 0.767896 -2.17256
Spine1  -2.40971 1.54783 -3.65618
HEad  -51.4469 3.16087 -1.94585
LeftShoulder1  -1.94126e-019 -3.10601e-018 -2.51263e-017
LeftArm  -14.3088 21.3744 -79.3771
LeftForeArm  33.6494 -13.622 -2.14166
LeftHand  -0.458066 -1.81639 7.56214
RightShoulder  -4.96962e-017 0 -2.36833e-017
RightArm  -29.5427 -21.1581 76.3032
RightForeArm  54.9338 14.9321 1.15583
RightHand  -0.366747 -0.886198 -9.4634
LeftUpLeg  -12.3236 7.94128 -5.29657
LeftLeg  13.7911 18.932 3.30883
LeftFoot  -0.472813 -8.91591e-005 -0.0142853
LeftToes  -12.6118 1.49739e-006 1.00523e-007
10
root  -47.5832 34.654 0.682452 177.678 81.3633 169.532
RightUpLeg  -17.3676 -21.6144 -6.08174
RightLeg  26.3608 0.636362 0.259398
RightFoot  2.51987 0.00708729 0.191915
RightToes  -34.6164 -0.176967 -0.282736
Spine  -0.991992 0.817491 -2.28124
Spine1  -2.08518 1.64322 -3.82572
HEad  -51.7663 3.38237 -2.37622
LeftShoulder1  -1.94126e-019 -3.10601e-018 -2.51263e-017
LeftArm  -15.7324 21.1987 -79.3008
LeftForeArm  34.3364 -12.5319 -2.06377
LeftHand  -0.466321 -1.54668 7.97343
RightShoulder  -4.96962e-017 0 -2.36833e-017
RightArm  -27.945 -20.234 76.5713
RightForeArm  53.8452 16.4325 1.1608
RightHand  -0.367088 -0.851754 -9.41159
LeftUpLeg  -11.8762 8.64166 -5.66212
LeftLeg  13.4504 19.0225 3.20999
LeftFoot  -0.568811 -0.000999606 -0.0398573
LeftToes  -12.0634 1.49739e-006 1.00523e-007
11
root  -47.5725 34.6553 0.551644 177.283 82.0778 169.229
RightUpLeg  -19.8343 -22.541 -6.41232
RightLeg  30.7835 2.52442 1.28045
RightFoot  4.34529 0.00563398 0.363284
RightToes  -38.4481 -0.206206 -0.306189
Spine  -0.888932 0.872084 -2.26744
Spine1  -1.87665 1.75087 -3.77539
HEad  -51.7019 3.49077 -2.85634
LeftShoulder1  -1.94126e-019 -3.10601e-018 -2.51263e-017
LeftArm  -16.7897 21.2289 -79.2864
LeftForeArm  34.946 -11.6691 -1.97746
LeftHand  -0.464658 -1.27888 8.2433
RightShoulder  -4.96962e-017 0 -2.36833e-017
RightArm  -26.6598 -19.7647 76.6948
RightForeArm  53.2558 18.8992 1.47911
RightHand  -0.373359 -0.665973 -9.20625
LeftUpLeg  -11.6148 9.8001 -5.81774
LeftLeg  13.1728 18.6265 3.05475
LeftFoot  -0.673844 -0.00134095 -0.0665097
LeftToes  -11.8301 1.49739e-006 1.00523e-007
12
root  -47.5545 34.6555 0.455987 178.382 82.5903 170.406
RightUpLeg  -22.0538 -23.263 -6.58534
RightLeg  34.7555 4.18173 2.50061
RightFoot  6.4952 -0.0103457 0.687022
RightToes  -41.795 -0.232979 -0.325036
Spine  -0.776481 0.895647 -2.16883
Spine1  -1.65343 1.81091 -3.57901
HEad  -51.7626 3.53145 -3.06831
LeftShoulder1  -1.94126e-019 -3.10601e-018 -2.51263e-017
LeftArm  -16.7494 21.4133 -79.127
LeftForeArm  34.959 -11.3124 -1.93668
LeftHand  -0.437354 -1.24233 7.80723
RightShoulder  -4.96962e-017 0 -2.36833e-017
RightArm  -25.7174 -19.3488 76.7647
RightForeArm  53.1125 20.8594 1.84655
RightHand  -0.37932 -0.547476 -9.08505
LeftUpLeg  -11.55 10.8186 -5.74972
LeftLeg  13.2406 18.1026 2.99343
LeftFoot  -0.839037 -0.00113726 -0.113013
LeftToes  -11.5192 1.49739e-006 1.00523e-007
13
root  -47.5185 34.6586 0.389702 -179.947 82.7167 172.191
RightUpLeg  -23.6003 -24.0805 -6.7671
RightLeg  37.7293 5.70193 3.82134
RightFoot  8.37358 -0.0460541 1.12465
RightToes  -42.8358 -0.241524 -0.330574
Spine  -0.673396 0.920169 -2.11168
Spine1  -1.45119 1.87486 -3.47708
HEad  -51.7806 3.21363 -2.83609
LeftShoulder1  -1.94126e-019 -3.10601e-018 -2.51263e-017
LeftArm  -16.072 21.5144 -78.6708
LeftForeArm  35.324 -11.197 -1.92148
LeftHand  -0.440336 -1.43201 7.65581
RightShoulder  -4.96962e-017 0 -2.36833e-017
RightArm  -25.2446 -19.1547 76.9914
RightForeArm  53.1765 22.0425 2.06593
RightHand  -0.388155 -0.41345 -9.06027
LeftUpLeg  -11.4781 11.3131 -5.59168
LeftLeg  13.3994 17.7567 2.98783
LeftFoot  -0.974579 -0.00171588 -0.15248
LeftToes  -11.3324 1.49739e-006 1.00523e-007
14
root  -47.4559 34.6594 0.348189 -179.099 82.4952 173.067
RightUpLeg  -24.3967 -25.1589 -7.04478
RightLeg  39.2142 6.72327 4.75791
RightFoot  9.09015 -0.0742536 1.42247
RightToes  -41.8817 -0.233687 -0.325503
Spine  -0.598061 0.818519 -2.0445
Spine1  -1.2972 1.68018 -3.34509
HEad  -51.866 2.77502 -2.73448
LeftShoulder1  -1.94126e-019 -3.10601e-018 -2.51263e-017
LeftArm  -15.0045 21.5419 -78.0771
LeftForeArm  35.7586 -11.1743 -1.9178
LeftHand  -0.443558 -1.64482 7.47836
RightShoulder  -4.96962e-017 0 -2.36833e-017
RightArm  -25.0954 -19.0179 77.2525
RightForeArm  53.5655 22.9493 2.22381
RightHand  -0.40316 -0.254159 -9.13458
LeftUpLeg  -11.4977 11.5284 -5.53253
LeftLeg  13.646 17.3632 2.99934
LeftFoot  -1.08178 -0.00321784 -0.179315
LeftToes  -11.1688 1.49739e-006 1.00523e-007
15
root  -47.373 34.6724 0.337298 -177.535 81.8244 174.616
RightUpLeg  -24.1539 -26.3967 -7.24877
RightLeg  38.3612 6.67992 4.58149
RightFoot  9.34838 -0.0774876 1.43699
RightToes  -40.2893 -0.220799 -0.316751
Spine  -0.558325 0.662826 -1.9527
Spine1  -1.21127 1.37316 -3.16726
HEad  -51.8183 1.91625 -2.65135
LeftShoulder1  -1.94126e-019 -3.10601e-018 -2.51263e-017
LeftArm  -14.0946 21.3012 -77.4059
LeftForeArm  36.2052 -11.095 -1.90704
LeftHand  -0.440463 -1.62918 7.45799
RightShoulder  -4.96962e-017 0 -2.36833e-017
RightArm  -25.3168 -18.9601 77.5213
RightForeArm  53.823 22.853 2.19324
RightHand  -0.415834 -0.11442 -9.18526
LeftUpLeg  -11.6868 11.1052 -5.33366
LeftLeg  14.1847 17.1295 3.12352
LeftFoot  -1.21714 -0.00404191 -0.218984
LeftToes  -10.8917 1.49739e-006 1.00523e-007
